<?xml version="1.0" encoding="UTF-8" standalone="no"?>
<!DOCTYPE svg PUBLIC "-//W3C//DTD SVG 1.1//EN" "http://www.w3.org/Graphics/SVG/1.1/DTD/svg11.dtd">
<svg width="100%" height="100%" viewBox="0 0 451 363" version="1.1" xmlns="http://www.w3.org/2000/svg" xmlns:xlink="http://www.w3.org/1999/xlink" xml:space="preserve" xmlns:serif="http://www.serif.com/" style="fill-rule:evenodd;clip-rule:evenodd;stroke-linejoin:round;stroke-miterlimit:2;">
    <g id="a">
        <g transform="matrix(1.15672,0,0,1.17256,-55.3013,-112.076)">
            <path d="M361.56,233.61C364.9,229.49 367.86,224.98 370.35,220.29C371.64,217.88 375.21,208.51 379.2,211.42C382.03,213.49 376.82,220.53 375.58,222.53C372.61,227.35 369.27,231.93 365.93,236.49C369.91,238.87 374,240.95 378.23,242.87C379.31,243.36 382.03,243.85 382.67,244.83C384.18,247.14 378.85,245.23 378.14,245.01C373.98,243.76 369.95,242.1 366.08,240.11C363.74,238.91 363.76,239.21 362.08,241.2C360.63,242.91 359.11,244.58 357.41,246.05C354.59,248.5 350.88,250.91 346.95,250C342.58,248.98 341.22,244.73 342.64,240.76C344.08,236.73 346.35,233.02 348.44,229.31C349.13,228.09 349.03,227.99 348.15,226.92C347.38,225.99 346.5,225.14 345.69,224.24C344.2,222.57 342.76,220.87 341.54,218.99C336.69,211.51 333.14,202.99 332.91,193.98C332.69,185.25 334.34,177.07 340.39,170.46C345.52,164.85 353.12,161.71 360.69,163.58C368.85,165.6 373.36,173.69 373.81,181.63C374.37,191.44 370.21,200.63 365.73,209.09C363.31,213.66 360.46,218.02 357.8,222.45C357.08,223.65 356.36,224.84 355.64,226.04C354.83,227.39 354.42,227.74 355.66,228.87C357.51,230.56 359.56,232.07 361.55,233.58L361.56,233.61ZM351.26,224.61C357.56,215.25 364.53,205.76 368.35,195.05C371.38,186.57 372.42,174.53 365.17,167.69C358.78,161.66 348.97,165.77 344.17,171.63C341.31,175.12 339.75,179.44 338.76,183.8C337.67,188.58 337.33,194.53 338.37,199.35C339.34,203.82 340.72,208.15 342.68,212.28C344.83,216.81 348.08,220.77 351.25,224.61L351.26,224.61ZM352.66,231.35C351.61,233.88 350.47,236.36 349.36,238.87C348.74,240.28 346.55,244.61 347.87,246.02C349.8,248.1 358.15,237.85 359.39,236.33C357.13,234.65 354.94,233.03 352.66,231.35Z" style="fill:rgb(13,71,161);fill-rule:nonzero;"/>
        </g>
        <g transform="matrix(1,0,0,1,35.5221,5.97534)">
            <g transform="matrix(120,0,0,120,252.656,181.295)">
            </g>
            <text x="0px" y="181.295px" style="font-family:'BetterSaturday', 'Better Saturday';font-size:120px;fill:rgb(13,71,161);">J<tspan x="105.645px " y="181.295px ">a</tspan>ne</text>
        </g>
        <g transform="matrix(1,0,0,1,116.099,172.016)">
            <g transform="matrix(120,0,0,120,283.887,181.295)">
            </g>
            <text x="0px" y="181.295px" style="font-family:'BetterSaturday', 'Better Saturday';font-size:120px;fill:rgb(13,71,161);">Jo<tspan x="160.898px 228.223px " y="181.295px 181.295px ">hn</tspan></text>
        </g>
    </g>
    <g id="b">
    </g>
</svg>
