<svg xmlns="http://www.w3.org/2000/svg" viewBox="0 0 96.02 11.68">
  <defs>
    <style>
      .a {
        fill: #212852;
      }
    </style>
  </defs>
  <g>
    <path class="a" d="M52.91,3.75a5.64,5.64,0,0,1,1-1.79A4.54,4.54,0,0,1,55.39.79,4.12,4.12,0,0,1,57.21.37,5.52,5.52,0,0,1,58,.43a2.49,2.49,0,0,1,.69.16,4.87,4.87,0,0,1,.53.21,1.12,1.12,0,0,1,.29.19,1.4,1.4,0,0,1,.14.56c0,.3,0,.72,0,1.24,0,.14,0,.22-.15.22s-.19-.09-.22-.28a2.7,2.7,0,0,0-.27-.66,2.19,2.19,0,0,0-2-1.25,2.37,2.37,0,0,0-1.27.36,3.4,3.4,0,0,0-1,1,5.34,5.34,0,0,0-.69,1.63A8.45,8.45,0,0,0,53.86,6a8.12,8.12,0,0,0,.26,2.08,5.36,5.36,0,0,0,.7,1.63,3.3,3.3,0,0,0,1,1.07,2.31,2.31,0,0,0,1.27.38,1.88,1.88,0,0,0,1.32-.47A3.61,3.61,0,0,0,59.3,9.3a4,4,0,0,0,.17-.59q0-.21.18-.21c.11,0,.17.1.17.29V10.1a1.32,1.32,0,0,1-.12.62,1.15,1.15,0,0,1-.34.32,2.7,2.7,0,0,1-.58.31,3.36,3.36,0,0,1-.76.24,4.88,4.88,0,0,1-.93.09,3.83,3.83,0,0,1-1.79-.42,4.36,4.36,0,0,1-1.44-1.19,5.58,5.58,0,0,1-1-1.77,7.49,7.49,0,0,1-.34-2.25,6.94,6.94,0,0,1,.37-2.25"/>
    <path class="a" d="M63.16,9.71a2.09,2.09,0,0,0,0,.5.73.73,0,0,0,.52.57,1.86,1.86,0,0,0,.62.08,2.17,2.17,0,0,0,1.91-1,1.3,1.3,0,0,0,.22-.42,1.27,1.27,0,0,1,.12-.36,2.77,2.77,0,0,1,.1-.26.17.17,0,0,1,.14-.09.16.16,0,0,1,.13.14v.3l-.16,1.59a1.84,1.84,0,0,1-.07.47c0,.06-.14.09-.32.09l-1.28,0c-.59,0-1.16-.07-1.87-.07-.47,0-.93,0-1.4.06l-.66.06q-.36,0-.36-.27a.22.22,0,0,1,.06-.17.29.29,0,0,1,.16-.07h.44c.26-.07.42-.17.47-.3A2.25,2.25,0,0,0,62,9.81V2A1.72,1.72,0,0,0,62,1.44c0-.1-.15-.17-.32-.23a1.71,1.71,0,0,0-.32,0h-.24a.27.27,0,0,1-.17-.06A.32.32,0,0,1,60.84,1a.25.25,0,0,1,.25-.24,3.33,3.33,0,0,1,.54.07,5.62,5.62,0,0,0,.92.07,5.61,5.61,0,0,0,1-.07,3.33,3.33,0,0,1,.54-.07c.17,0,.25.08.25.24v.16a.2.2,0,0,1-.15.06h-.52a.38.38,0,0,0-.38.23,1.85,1.85,0,0,0-.06.57Z"/>
    <path class="a" d="M71.11,2.9s-.06,0-.1.14L70,6.58a.28.28,0,0,0,0,.13q0,.12.15.12h2c.12,0,.19-.06.19-.17a.24.24,0,0,0,0-.12L71.23,3.06c0-.11-.06-.16-.1-.16m3.32,6.4a8.49,8.49,0,0,0,.36,1,1,1,0,0,0,.4.49.57.57,0,0,0,.22.07h.22l.18.06a.15.15,0,0,1,.07.15c0,.14-.11.22-.34.22H75a9.55,9.55,0,0,0-1.07,0h-.71a3.75,3.75,0,0,1-.58,0,.62.62,0,0,1-.27,0,.17.17,0,0,1-.08-.17c0-.17.18-.27.54-.29a2,2,0,0,0,.48-.08c.1,0,.15-.13.15-.31v-.26a3,3,0,0,0-.11-.5l-.71-2.12a.23.23,0,0,0-.22-.2H69.9a.23.23,0,0,0-.16.06.4.4,0,0,0-.1.18l-.54,2a2.78,2.78,0,0,0-.12.69.39.39,0,0,0,.13.35.78.78,0,0,0,.36.13,3.35,3.35,0,0,1,.55.11.26.26,0,0,1,.18.26c0,.13-.1.2-.3.2a2.29,2.29,0,0,1-.52,0,5.25,5.25,0,0,0-.79-.06H68a2.07,2.07,0,0,1-.5.06c-.18,0-.27-.07-.27-.22s0-.16.09-.18a1.05,1.05,0,0,1,.24-.06l.31-.07a.69.69,0,0,0,.32-.21,1.55,1.55,0,0,0,.26-.55c.09-.25.19-.58.31-1L71.23.7a2.47,2.47,0,0,0,.1-.29A.16.16,0,0,1,71.5.3c.13,0,.21.08.25.26s.1.41.19.7Z"/>
    <path class="a" d="M78.82,9.74v.45a.71.71,0,0,0,0,.29.46.46,0,0,0,.17.17,1.06,1.06,0,0,0,.34.12h.47a.36.36,0,0,1,.15.08A.21.21,0,0,1,80,11c0,.16-.13.24-.37.24h-.55a11.06,11.06,0,0,0-1.82,0h-.56c-.25,0-.37-.09-.37-.27a.22.22,0,0,1,.06-.17.33.33,0,0,1,.16-.07H77a1.21,1.21,0,0,0,.32-.11.39.39,0,0,0,.18-.18.72.72,0,0,0,.15-.27V2a1.72,1.72,0,0,0-.06-.55c0-.1-.15-.17-.32-.23a1.71,1.71,0,0,0-.32,0,1,1,0,0,1-.24,0,.27.27,0,0,1-.17-.06A.32.32,0,0,1,76.51,1a.25.25,0,0,1,.25-.24,3.33,3.33,0,0,1,.54.07,5.62,5.62,0,0,0,.92.07,5.61,5.61,0,0,0,1-.07,3.33,3.33,0,0,1,.54-.07c.17,0,.25.08.25.24v.16a.2.2,0,0,1-.15.06h-.52a.39.39,0,0,0-.38.23A1.85,1.85,0,0,0,78.9,2Z"/>
    <path class="a" d="M86.35,3.45a2.67,2.67,0,0,0-.52-1.72,1.72,1.72,0,0,0-1.36-.62,4,4,0,0,0-.69,0,.77.77,0,0,0-.36.15.41.41,0,0,0-.15.26,1.41,1.41,0,0,0,0,.41V5.32a.45.45,0,0,0,0,.23h.53c1.69,0,2.54-.73,2.54-2.19m-.51,3c.17.33.33.66.47,1l.76,1.94c.19.46.34.81.45,1.06a.79.79,0,0,0,.34.44,2.91,2.91,0,0,0,.5.16.23.23,0,0,1,.21.23c0,.11-.06.17-.18.17H87.11a.45.45,0,0,1-.43-.16,1.82,1.82,0,0,1-.24-.43L85,7.3c-.1-.24-.19-.43-.25-.59a1.36,1.36,0,0,0-.24-.38.72.72,0,0,0-.33-.21,2.24,2.24,0,0,0-.52-.06h-.2c-.1,0-.17,0-.19.06a.45.45,0,0,0,0,.23V9.72a3.86,3.86,0,0,0,0,.68.51.51,0,0,0,.29.3,1.4,1.4,0,0,0,.29.09h.24a.49.49,0,0,1,.17.06.25.25,0,0,1,.06.2c0,.16-.11.24-.34.24a3.53,3.53,0,0,1-.46,0,10.11,10.11,0,0,0-1.74,0,3.69,3.69,0,0,1-.47,0c-.21,0-.32-.09-.32-.27s.14-.25.41-.25a.57.57,0,0,0,.52-.2.9.9,0,0,0,.14-.53V9.92a.81.81,0,0,0,0-.22V2a2.44,2.44,0,0,0,0-.54.4.4,0,0,0-.28-.24,1,1,0,0,0-.25,0,.74.74,0,0,1-.21,0,.43.43,0,0,1-.16-.05A.2.2,0,0,1,81.11,1c0-.16.11-.24.31-.24h2.79a4,4,0,0,1,2.44.61,2.35,2.35,0,0,1,.81,2,2.57,2.57,0,0,1-.58,1.75A2.65,2.65,0,0,1,85.21,6a1.35,1.35,0,0,1,.66.61"/>
    <path class="a" d="M95,.67h.37a.39.39,0,0,1,.21.06.23.23,0,0,1,.1.17,1.93,1.93,0,0,1,0,.34V2.7c0,.28-.06.42-.19.42A.18.18,0,0,1,95.3,3c0-.09-.08-.18-.11-.27a1.27,1.27,0,0,0-.13-.37A2.44,2.44,0,0,0,94.82,2,2.14,2.14,0,0,0,93,1.16a4.7,4.7,0,0,0-.75,0,1.14,1.14,0,0,0-.47.19.85.85,0,0,0-.24.35,2.67,2.67,0,0,0-.06.56v3a.66.66,0,0,0,.28,0h.91A1.75,1.75,0,0,0,94,4.88a.84.84,0,0,0,.22-.36,1.68,1.68,0,0,0,.09-.32A.31.31,0,0,1,94.34,4a.14.14,0,0,1,.15-.09c.12,0,.19.1.19.3a4.51,4.51,0,0,1,0,.52V7.3c0,.21,0,.31-.17.31a.13.13,0,0,1-.15-.1,1.27,1.27,0,0,1-.06-.28,3.25,3.25,0,0,0-.08-.43A2.24,2.24,0,0,0,94,6.27a1.34,1.34,0,0,0-1.31-.47h-.93c-.1,0-.16,0-.19.06a.49.49,0,0,0,0,.24V9.74a1.06,1.06,0,0,0,.33.88,1.79,1.79,0,0,0,1.15.27,3.15,3.15,0,0,0,1.29-.21,2.09,2.09,0,0,0,.86-.7,1.76,1.76,0,0,0,.26-.44,1.37,1.37,0,0,1,.13-.39,1.53,1.53,0,0,1,.11-.27.18.18,0,0,1,.16-.1H96s.06.06.06.08v.31l-.15,1.59a1.29,1.29,0,0,1-.19.54.5.5,0,0,1-.37.1,6.24,6.24,0,0,1-1.07-.09A16.2,16.2,0,0,0,92,11.23H89.52q-.36,0-.36-.27a.22.22,0,0,1,.06-.17.33.33,0,0,1,.16-.07h.44c.26-.07.42-.16.47-.29a2.31,2.31,0,0,0,.08-.74V2a1.66,1.66,0,0,0-.06-.54c0-.1-.14-.18-.32-.24a1.5,1.5,0,0,0-.3,0,1,1,0,0,1-.25,0,.27.27,0,0,1-.17-.06A.3.3,0,0,1,89.2,1a.28.28,0,0,1,.3-.24H95Z"/>
    <path class="a" d="M2.28.67h.2a.35.35,0,0,1,.11.15L5.11,8.53a.13.13,0,0,0,.12.14s.08,0,.11-.15L7.8,1A1,1,0,0,1,7.88.73.27.27,0,0,1,8.07.65H9.78c.17,0,.25.08.25.24S10,1,10,1.06a.28.28,0,0,1-.18,0H9.51a1.09,1.09,0,0,0-.31.08A.37.37,0,0,0,9,1.37a1.57,1.57,0,0,0-.06.53v.4l.22,7.38v.4a1.22,1.22,0,0,0,0,.27.31.31,0,0,0,.09.18.63.63,0,0,0,.2.13.84.84,0,0,0,.31.08H10a.64.64,0,0,1,.18.06.27.27,0,0,1,.06.21c0,.15-.11.23-.33.23H9.37a5.75,5.75,0,0,0-.83,0,5.75,5.75,0,0,0-.83,0h-.5q-.36,0-.36-.27a.19.19,0,0,1,.09-.18h.49a.66.66,0,0,0,.33-.12A.35.35,0,0,0,8,10.39a3.31,3.31,0,0,0,0-.63V9.3L7.81,2.59V2.35s-.08,0-.11.12L5,10.8a.13.13,0,0,1-.12.13s-.09,0-.12-.13L2,2.42a.14.14,0,0,0-.12-.07.48.48,0,0,0-.05.24L1.54,8.06V9.23a5.48,5.48,0,0,0,.14,1.21.47.47,0,0,0,.52.38h.32c.15,0,.22.09.22.27s-.13.25-.4.25H.39c-.26,0-.39-.1-.39-.29s.1-.23.29-.23h.2a.38.38,0,0,0,.33-.14.9.9,0,0,0,.2-.47,5.72,5.72,0,0,0,.12-.83c0-.34.06-.77.08-1.28l.3-6V1.91c0-.36-.12-.58-.37-.66l-.3-.06H.59a.25.25,0,0,1-.16-.06A.32.32,0,0,1,.37,1,.25.25,0,0,1,.62.72Z"/>
    <path class="a" d="M14.68,2.9s-.07,0-.1.14l-1,3.54v.13c0,.08.06.12.16.12h2.08c.12,0,.18-.06.18-.17a.24.24,0,0,0,0-.12L14.78,3.06c0-.11-.06-.16-.1-.16M18,9.3a8.49,8.49,0,0,0,.36,1,1,1,0,0,0,.4.49.44.44,0,0,0,.22.07h.22a.49.49,0,0,1,.17.06.14.14,0,0,1,.08.15c0,.14-.11.22-.34.22h-.52a9.55,9.55,0,0,0-1.07,0h-.71a3.11,3.11,0,0,1-.61,0,.61.61,0,0,1-.27,0c-.06,0-.08-.08-.08-.17s.18-.27.54-.29a2.67,2.67,0,0,0,.48-.08c.1,0,.14-.13.14-.31a1.13,1.13,0,0,0,0-.26,4.48,4.48,0,0,0-.11-.5l-.66-2.12a.21.21,0,0,0-.22-.2H13.46a.25.25,0,0,0-.15.06.4.4,0,0,0-.1.18l-.54,2a2.78,2.78,0,0,0-.12.69.39.39,0,0,0,.13.35.78.78,0,0,0,.36.13,3.35,3.35,0,0,1,.55.11.26.26,0,0,1,.18.26c0,.13-.1.2-.31.2a2.24,2.24,0,0,1-.51-.07,5.25,5.25,0,0,0-.79-.06c-.21,0-.41,0-.62,0a2.07,2.07,0,0,1-.5.06c-.18,0-.27-.07-.27-.22s0-.16.1-.18a.86.86,0,0,1,.23-.06l.32-.07a.69.69,0,0,0,.32-.21A1.64,1.64,0,0,0,12,10c.09-.25.19-.58.31-1L14.8.67a.89.89,0,0,1,.1-.29.16.16,0,0,1,.17-.11c.09,0,.21.08.25.26s.1.41.19.7Z"/>
    <path class="a" d="M26.27,2.75V3s-.06.07-.13.07A.15.15,0,0,1,26,3a.83.83,0,0,1-.08-.22,1.91,1.91,0,0,0-.06-.33,1.86,1.86,0,0,0-.13-.46,1.56,1.56,0,0,0-.22-.4,1,1,0,0,0-.34-.26,1.5,1.5,0,0,0-.51-.15,4.57,4.57,0,0,0-.74,0h-.44c-.1,0-.17,0-.19.1a1.22,1.22,0,0,0,0,.27V9.91a1.91,1.91,0,0,0,.07.63c.06.12.22.21.49.28h.47a.35.35,0,0,1,.16.08.21.21,0,0,1,.06.18c0,.16-.12.24-.37.24H23.6a6.91,6.91,0,0,0-.91,0,8.51,8.51,0,0,0-1,0h-.55c-.25,0-.37-.09-.37-.27a.22.22,0,0,1,.06-.17.33.33,0,0,1,.16-.07h.22a1,1,0,0,0,.25,0,1.21,1.21,0,0,0,.32-.11.3.3,0,0,0,.17-.18.64.64,0,0,0,.06-.28V1.45a1.22,1.22,0,0,0,0-.27c0-.07-.09-.1-.19-.1h-.63a1.66,1.66,0,0,0-.84.26,2.35,2.35,0,0,0-.75.72,3.67,3.67,0,0,0-.39.73q-.09.3-.27.3c-.1,0-.15-.08-.15-.25a.48.48,0,0,1,0-.17,1.33,1.33,0,0,1,0-.19L19.4.3a1.87,1.87,0,0,1,.07-.22A.14.14,0,0,1,19.62,0c.1,0,.15.06.15.19V.36A.23.23,0,0,0,20,.61a2.81,2.81,0,0,0,.71,0h4.07a2.29,2.29,0,0,0,1.1-.12A.42.42,0,0,0,26,.34.77.77,0,0,0,26,.18.38.38,0,0,1,26.1.05h.12c.06,0,.19.09.19.29h0Z"/>
    <path class="a" d="M34.5,2.75V3s-.06.07-.13.07A.15.15,0,0,1,34.22,3a.58.58,0,0,1-.08-.22,1.29,1.29,0,0,0-.06-.33A2.42,2.42,0,0,0,34,1.94a1.56,1.56,0,0,0-.22-.4,1.23,1.23,0,0,0-.34-.26,1.77,1.77,0,0,0-.51-.15,4.57,4.57,0,0,0-.74,0h-.46c-.11,0-.17,0-.19.1a1.22,1.22,0,0,0,0,.27V9.91a1.91,1.91,0,0,0,.07.63c.05.12.21.21.48.28h.48a.35.35,0,0,1,.16.08.21.21,0,0,1,.06.18c0,.16-.13.24-.37.24h-.56a7.06,7.06,0,0,0-.92,0,6.76,6.76,0,0,0-.9,0h-.55c-.25,0-.37-.09-.37-.27a.22.22,0,0,1,.06-.17.33.33,0,0,1,.16-.07h.47a1.21,1.21,0,0,0,.32-.11.3.3,0,0,0,.17-.18.67.67,0,0,0,.06-.28V1.45a1.22,1.22,0,0,0,0-.27c0-.07-.09-.1-.19-.1h-.63a1.66,1.66,0,0,0-.84.26,2.35,2.35,0,0,0-.75.72,3.67,3.67,0,0,0-.39.73q-.09.3-.27.3c-.1,0-.15-.08-.15-.25a.48.48,0,0,1,0-.17V2.48L27.68.3a.94.94,0,0,1,.07-.22A.14.14,0,0,1,27.9,0c.1,0,.15.06.15.19V.36a.24.24,0,0,0,.2.25,4.33,4.33,0,0,0,.72,0H33a2.42,2.42,0,0,0,1.1-.12.58.58,0,0,0,.11-.15l.07-.16a.38.38,0,0,1,.06-.13h.12c.06,0,.18.09.18.29h0Z"/>
    <path class="a" d="M39.16,7.52a4.5,4.5,0,0,0,.68-.7,3.74,3.74,0,0,0,.41-.55.84.84,0,0,0,.15-.38.16.16,0,0,0-.09-.13.38.38,0,0,0-.17-.08.82.82,0,0,0-.34.12,3,3,0,0,0-.4.3,4.62,4.62,0,0,0-.62.78,1.49,1.49,0,0,0-.28.66.25.25,0,0,0,.06.17.19.19,0,0,0,.14.07.88.88,0,0,0,.46-.26m-1.08.59a.23.23,0,0,1-.11-.2A1.77,1.77,0,0,1,38.33,7a5.29,5.29,0,0,1,1-1.06c.49-.43.81-.65,1-.65a.3.3,0,0,1,.19.1l.09.12V5.45c.12-.15.12-.22.12-.15s.06-.07.09-.07a.54.54,0,0,1,.18,0s.08.07.08.1V5.5l-.77,2a.24.24,0,0,0,0,.12.11.11,0,0,0,.1.12h0a.56.56,0,0,0,.3-.12,1.07,1.07,0,0,0,.3-.3.09.09,0,0,1,.07,0v.07a.34.34,0,0,1-.09.19,2.43,2.43,0,0,1-.2.25,1.7,1.7,0,0,1-.39.27.75.75,0,0,1-.36.1.27.27,0,0,1-.21-.09.21.21,0,0,1-.09-.18.43.43,0,0,1,0-.16V7.71l.14-.31c.06-.12.11-.24.17-.35a.2.2,0,0,0,0-.11h0a8.59,8.59,0,0,1-1,1,1.13,1.13,0,0,1-.68.27.31.31,0,0,1-.24-.1"/>
    <path class="a" d="M41.45,8.15A.27.27,0,0,1,41.39,8V7.92l.8-2a.48.48,0,0,0,.07-.24s0,0,0-.06h0a.5.5,0,0,0-.24.06,1,1,0,0,0-.27.26h0a.43.43,0,0,1,0-.16,1.18,1.18,0,0,1,.11-.19A.72.72,0,0,1,42,5.35a1,1,0,0,1,.41-.1.23.23,0,0,1,.16.06.21.21,0,0,1,.08.16v.08l-.45,1.17h0a4.76,4.76,0,0,1,.85-1.1,1.26,1.26,0,0,1,.76-.4.36.36,0,0,1,.28.12.45.45,0,0,1,.12.33,1.08,1.08,0,0,1-.07.31l-.64,1.5a.48.48,0,0,0,0,.17.06.06,0,0,0,.06.08h0A.8.8,0,0,0,44,7.55a2.06,2.06,0,0,0,.37-.29h0a.14.14,0,0,1,0,.09,2.41,2.41,0,0,1-.6.55,1.14,1.14,0,0,1-.64.21A.18.18,0,0,1,43,8a.21.21,0,0,1-.08-.16.09.09,0,0,1,0-.07l.14-.31a3.42,3.42,0,0,1,.27-.64c.14-.32.27-.62.37-.89a1,1,0,0,0,.09-.34q0-.18-.15-.18a.54.54,0,0,0-.3.13A2.52,2.52,0,0,0,43,6c-.11.13-.29.39-.54.77s-.48.77-.69,1.15a1,1,0,0,1-.11.17H41.5A.14.14,0,0,1,41.38,8"/>
    <path class="a" d="M46.09,7.54a3.39,3.39,0,0,0,.68-.83,1.68,1.68,0,0,0,.28-.84A.54.54,0,0,0,47,5.55a.33.33,0,0,0-.25-.11,1,1,0,0,0-.62.39,3.84,3.84,0,0,0-.64.91,2,2,0,0,0-.28.88.37.37,0,0,0,0,.21.2.2,0,0,0,.18.06A1.1,1.1,0,0,0,46,7.54m1-.16a.74.74,0,0,0,0,.21c0,.1,0,.15.1.15a.58.58,0,0,0,.33-.14,1.56,1.56,0,0,0,.35-.33h0s0,0,0,.06a.58.58,0,0,1-.19.35,2.74,2.74,0,0,1-.45.39.74.74,0,0,1-.39.18.35.35,0,0,1-.31-.31V7.76l.13-.56V7.13h0a4,4,0,0,1-.83.86,1.22,1.22,0,0,1-.73.25.47.47,0,0,1-.33-.14.52.52,0,0,1-.12-.36,2.06,2.06,0,0,1,.25-.9,3.71,3.71,0,0,1,.62-1A2.68,2.68,0,0,1,46,5.37a1,1,0,0,1,.5-.17h.15l.24.15.18.11h0l.6-1.56V3.76a.13.13,0,0,0,0-.12.28.28,0,0,0-.15-.08l-.16-.06h0a.1.1,0,0,1,.06-.08h.18l.64-.08c.06,0,.08,0,.08.1V3.6Z"/>
  </g>
</svg>
